<svg width="71" height="58" viewBox="0 0 71 58" fill="none" xmlns="http://www.w3.org/2000/svg">
<path d="M0.261932 58H31.0119L29.3719 57.016H24.7799C18.7939 57.016 18.6299 54.392 18.6299 47.75V11.506C18.6299 1.99398 19.2859 1.58398 26.2559 1.58398C29.9459 1.58398 40.0319 3.79798 40.0319 15.196C40.0319 26.594 32.8159 29.546 26.5019 29.546C23.9599 29.546 21.9099 29.136 21.9099 29.136V30.12C21.9099 30.12 24.1239 30.53 28.1419 30.53C37.0799 30.53 46.5099 25.446 46.5099 14.048C46.5099 2.64998 37.1619 0.599976 30.5199 0.599976H1.81993L0.179932 1.58398H5.50993C12.4799 1.58398 12.4799 3.71597 12.4799 9.04598V47.668C12.4799 54.392 12.3159 57.016 5.91993 57.016H1.90193L0.261932 58Z" fill="#9ABD76"/>
<path d="M31.0119 58L50.1199 57.9999V56.9794C47.3724 56.9794 42.3484 56.9794 42.3484 51.2489V34.7639H49.2564C52.8674 34.7639 70.1374 34.6069 70.1374 17.2584C70.1374 3.04993 57.1064 0.616435 50.5909 0.616435H31.5416C34.8218 0.723553 38.5787 1.37952 41.5081 3.37394L40.3859 1.63693H49.2564C60.4034 1.63693 60.6389 9.64393 60.6389 17.5724C60.6389 22.2039 58.9119 25.8149 57.5774 28.2484L46.1866 10.6161C46.3968 11.6534 46.5099 12.7941 46.5099 14.048C46.5099 17.2785 45.7524 20.0017 44.4633 22.2458L51.8469 33.4294C51.8469 33.4294 50.9834 33.8219 49.3349 33.8219H34.3414V51.3274C34.3414 56.9907 29.9393 56.9836 27.5363 56.9796C27.4745 56.9795 27.414 56.9794 27.3549 56.9794V57.0159L29.3719 57.016L31.0119 58Z" fill="#C59F5D"/>
</svg>
